#N canvas 1411 -437 1920 997 10;
#X declare -lib SDT;
#X obj 271 902 *~;
#X obj 271 968 dac~ 1 2;
#X floatatom 1231 194 5 0 0 0 - - - 0;
#X obj 1231 56 vsl 15 128 0 1000 0 0 empty empty empty 0 -9 0 10 #fcfcfc #000000 #000000 0 1;
#X floatatom 1379 196 5 0 0 0 - - - 0;
#X obj 1379 59 vsl 15 128 0 1000 0 0 empty empty empty 0 -9 0 10 #fcfcfc #000000 #000000 0 1;
#X floatatom 1654 196 5 0 0 0 - - - 0;
#X obj 1654 59 vsl 15 128 0 1000 0 0 empty empty empty 0 -9 0 10 #fcfcfc #000000 #000000 0 1;
#X floatatom 1789 195 5 0 0 0 - - - 0;
#X obj 1789 57 vsl 15 128 0 1000 0 0 empty empty empty 0 -9 0 10 #fcfcfc #000000 #000000 0 1;
#X msg 1231 33 300;
#X msg 1379 33 100;
#X msg 1654 33 150;
#X msg 1788 33 100;
#X text 1228 10 Attack;
#X text 1375 9 Decay;
#X text 1652 9 Sustain;
#X text 1784 9 Release;
#X floatatom 1436 607 5 0 0 0 - - - 0;
#X obj 1173 33 loadbang;
#X obj 1320 33 loadbang;
#X obj 1594 32 loadbang;
#X obj 1733 32 loadbang;
#X floatatom 1386 562 5 0 0 0 - - - 0;
#X obj 1082 58 vsl 15 128 0 200 0 0 empty empty empty 0 -9 0 10 #fcfcfc #000000 #000000 0 1;
#X obj 1024 35 loadbang;
#X obj 1436 577 r attack;
#X obj 1231 244 s attack;
#X obj 1517 655 r decay;
#X obj 1379 240 s decay;
#X floatatom 1082 218 5 0 0 0 - - - 0;
#X obj 1082 244 s peak_level;
#X obj 1082 195 / 100;
#X msg 1082 35 100;
#X text 1079 12 Peak level;
#X obj 1386 539 r peak_level;
#X obj 1453 257 r peak_level;
#X obj 1453 305 *;
#X obj 1501 284 t b f;
#X obj 1501 56 vsl 15 128 0 100 0 0 empty empty empty 0 -9 0 10 #fcfcfc #000000 #000000 0 1;
#X obj 1443 33 loadbang;
#X floatatom 1501 216 5 0 0 0 - - - 0;
#X obj 1501 193 / 100;
#X text 1498 10 Sustain level;
#X msg 1501 33 70;
#X obj 1654 243 s sustain;
#X obj 1789 244 s release;
#X obj 34 236 bng 30 250 50 0 empty empty empty 17 7 0 10 #fcfcfc #000000 #000000;
#X obj 34 330 s start_note;
#X obj 1339 514 r start_note;
#X obj 1426 859 vline~;
#X msg 1426 824 \$2 \$3 \, \$4 \$5 \$3 \, 0 \$6 \$7;
#X obj 1339 538 bng 15 250 50 0 empty empty empty 17 7 0 10 #fcfcfc #000000 #000000;
#X obj 1453 328 s sustain_level;
#X text 1488 306 Percentage of peak level;
#X obj 1488 607 r sustain_level;
#X floatatom 1488 633 5 0 0 0 - - - 0;
#X floatatom 1517 678 5 0 0 0 - - - 0;
#X obj 1426 796 pack f f f f f f f;
#X obj 1832 685 t b f;
#X obj 1702 677 r sustain;
#X floatatom 1702 702 5 0 0 0 - - - 0;
#X floatatom 1541 738 5 0 0 0 - - - 0;
#X obj 1541 706 r release;
#X obj 1784 746 t b f;
#X obj 1784 706 +;
#X obj 1784 612 r attack;
#X obj 1832 633 r decay;
#X floatatom 1784 641 5 0 0 0 - - - 0;
#X floatatom 1832 661 5 0 0 0 - - - 0;
#X floatatom 1702 794 5 0 0 0 - - - 0;
#X obj 1702 767 +;
#X msg 1646 863 1 300 \, 0.7 100 300 \, 0 100 550;
#X msg 239 753 avgRate \$1;
#X msg 335 752 minRadius \$1;
#X msg 433 752 maxRadius \$1;
#X msg 531 752 expRadius \$1;
#X msg 625 752 minDepth \$1;
#X msg 715 752 maxDepth \$1;
#X msg 807 752 expDepth \$1;
#X msg 898 751 riseFactor \$1;
#X floatatom 239 710 8 0 100000 0 - - - 0;
#X floatatom 335 708 5 0 0 0 - - - 0;
#X floatatom 433 710 5 0 0 0 - - - 0;
#X floatatom 625 709 5 0 0 0 - - - 0;
#X floatatom 715 709 5 0 0 0 - - - 0;
#X floatatom 807 710 5 0 0 0 - - - 0;
#X floatatom 898 709 5 0 0 0 - - - 0;
#X floatatom 531 710 5 0 0 0 - - - 0;
#X floatatom 1004 710 5 0 0 0 - - - 0;
#X obj 239 811 fluidflow~ 128;
#X msg 1004 751 riseCutoff \$1;
#X text 228 513 fluidflow~ - Liquid sounds model;
#X msg 1083 471 Sound Design Toolkit \; (C) 2001 - 2021 \; \; Project SOb - soundobject.org \; Project CLOSED - closed.ircam.fr \; Project NIW - soundobject.org/niw \; Project SkAT-VG - skatvg.eu;
#X obj 531 569 vsl 15 128 0 10 0 0 empty expRadius empty 0 -9 0 10 #fcfcfc #000000 #000000 0 1;
#X obj 433 569 vsl 15 128 0.15 150 0 0 empty maxRadius empty 0 -9 0 10 #fcfcfc #000000 #000000 0 1;
#X obj 239 569 vsl 15 128 1 100000 1 0 empty avgRate empty 0 -9 0 10 #fcfcfc #000000 #000000 0 1;
#X obj 715 569 vsl 15 128 0 1 0 0 empty maxDepth empty 0 -9 0 10 #fcfcfc #000000 #000000 0 1;
#X obj 807 570 vsl 15 128 0 10 0 0 empty expDepth empty 0 -9 0 10 #fcfcfc #000000 #000000 0 1;
#X obj 898 569 vsl 15 128 0 4 0 0 empty riseFactor empty 0 -9 0 10 #fcfcfc #000000 #000000 0 1;
#X obj 1004 570 vsl 15 128 0 1 0 0 empty riseCutoff empty 0 -9 0 10 #fcfcfc #000000 #000000 0 1;
#X obj 335 567 vsl 15 128 0.15 150 0 0 empty minRadius empty 0 -9 0 10 #fcfcfc #000000 #000000 0 1;
#X obj 625 568 vsl 15 128 0 1 0 0 empty minDepth empty 0 -9 0 10 #fcfcfc #000000 #000000 0 1;
#X text 214 547 Bubbles/sec;
#X text 314 547 Min. and max. radius (mm);
#X text 502 548 Radius gamma;
#X text 620 548 Min. and max. depth;
#X text 779 549 Depth gamma;
#X text 870 549 Bloop amount;
#X text 955 549 Min. blooping depth;
#X obj 433 730 * 0.001;
#X obj 335 729 * 0.001;
#X msg 1123 631 \; avgRate 1000 \; minRadius 0.15 \; maxRadius 5 \; expRadius 3 \; minDepth 0 \; maxDepth 1 \; expDepth 1 \; riseFactor 0.1 \; riseCutoff 0.9 \;;
#X text 361 811 Arg: n. of voices (set it large for dense events);
#X obj 1133 609 loadbang;
#X obj 1192 559 declare -lib SDT;
#X obj 1123 587 r pd-dsp-started;
#X obj 32 62 list;
#X obj 32 38 oscparse;
#X obj 32 85 unpack s s;
#X obj 607 124 bng 16 250 50 0 empty empty empty 0 -8 0 10 #fcfcfc #000000 #000000;
#X obj 32 11 netreceive -u -b 3005;
#X obj 152 89 select LONG_ATTRACTING;
#X obj 155 185 select LITTLE_ATTRACTING;
#X obj 156 284 select STRONG_HOOKING;
#X obj 156 361 select STRONG_NOT_HOOKING;
#X obj 475 169 s attack;
#X obj 533 168 s decay;
#X obj 392 169 s peak_level;
#X obj 677 170 s sustain;
#X obj 581 170 s sustain_level;
#X msg 475 151 800;
#X msg 533 150 700;
#X msg 677 152 150;
#X obj 800 170 s bubbles;
#X obj 606 213 bng 16 250 50 0 empty empty empty 0 -8 0 10 #fcfcfc #000000 #000000;
#X obj 474 258 s attack;
#X obj 532 257 s decay;
#X obj 391 258 s peak_level;
#X obj 676 259 s sustain;
#X obj 580 259 s sustain_level;
#X obj 799 259 s bubbles;
#X obj 602 302 bng 16 250 50 0 empty empty empty 0 -8 0 10 #fcfcfc #000000 #000000;
#X obj 470 347 s attack;
#X obj 528 346 s decay;
#X obj 387 347 s peak_level;
#X obj 672 348 s sustain;
#X obj 576 348 s sustain_level;
#X obj 795 348 s bubbles;
#X obj 592 394 bng 16 250 50 0 empty empty empty 0 -8 0 10 #fcfcfc #000000 #000000;
#X obj 460 439 s attack;
#X obj 518 438 s decay;
#X obj 377 439 s peak_level;
#X obj 662 440 s sustain;
#X obj 566 440 s sustain_level;
#X msg 518 420 700;
#X msg 723 421 450;
#X obj 785 440 s bubbles;
#X msg 391 150 1;
#X msg 581 151 0.7;
#X msg 390 239 0.2;
#X msg 580 240 0.14;
#X msg 800 152 1000;
#X obj 737 258 s release;
#X obj 738 169 s release;
#X obj 733 347 s release;
#X obj 723 439 s release;
#X obj 180 711 r bubbles;
#X obj 857 348 s min_r;
#X obj 847 440 s min_r;
#X obj 861 259 s min_r;
#X obj 862 170 s min_r;
#X obj 269 668 r min_r;
#X msg 862 152 0.0015;
#X msg 861 241 0.001;
#X obj 376 667 r max_r;
#X obj 914 171 s max_r;
#X obj 913 260 s max_r;
#X obj 909 349 s max_r;
#X obj 899 441 s max_r;
#X msg 914 153 0.005;
#X msg 913 242 0.003;
#X msg 386 328 2;
#X msg 576 329 1.4;
#X msg 470 329 250;
#X msg 528 328 350;
#X msg 733 329 350;
#X msg 672 330 100;
#X msg 376 420 2;
#X msg 460 421 350;
#X msg 566 421 1.4;
#X msg 662 422 200;
#X msg 795 330 2000;
#X msg 785 422 3500;
#X msg 738 151 600;
#X msg 799 241 800;
#X msg 899 423 0.011;
#X msg 909 331 0.008;
#X msg 857 330 0.0015;
#X msg 847 422 0.0015;
#X msg 676 241 75;
#X msg 737 240 25;
#X msg 474 240 50;
#X msg 532 239 100;
#X connect 0 0 1 0;
#X connect 0 0 1 1;
#X connect 2 0 27 0;
#X connect 3 0 2 0;
#X connect 4 0 29 0;
#X connect 5 0 4 0;
#X connect 6 0 45 0;
#X connect 7 0 6 0;
#X connect 8 0 46 0;
#X connect 9 0 8 0;
#X connect 10 0 3 0;
#X connect 11 0 5 0;
#X connect 12 0 7 0;
#X connect 13 0 9 0;
#X connect 18 0 58 2;
#X connect 19 0 10 0;
#X connect 20 0 11 0;
#X connect 21 0 12 0;
#X connect 22 0 13 0;
#X connect 23 0 58 1;
#X connect 24 0 32 0;
#X connect 25 0 33 0;
#X connect 26 0 18 0;
#X connect 28 0 57 0;
#X connect 30 0 31 0;
#X connect 32 0 30 0;
#X connect 33 0 24 0;
#X connect 35 0 23 0;
#X connect 36 0 37 0;
#X connect 37 0 53 0;
#X connect 38 0 37 0;
#X connect 38 1 37 1;
#X connect 39 0 42 0;
#X connect 40 0 44 0;
#X connect 41 0 38 0;
#X connect 42 0 41 0;
#X connect 44 0 39 0;
#X connect 47 0 48 0;
#X connect 49 0 52 0;
#X connect 50 0 0 1;
#X connect 51 0 50 0;
#X connect 52 0 58 0;
#X connect 55 0 56 0;
#X connect 56 0 58 3;
#X connect 57 0 58 4;
#X connect 58 0 51 0;
#X connect 59 0 65 0;
#X connect 59 1 65 1;
#X connect 60 0 61 0;
#X connect 61 0 71 0;
#X connect 62 0 58 5;
#X connect 63 0 62 0;
#X connect 64 0 71 0;
#X connect 64 1 71 1;
#X connect 65 0 64 0;
#X connect 66 0 68 0;
#X connect 67 0 69 0;
#X connect 68 0 65 0;
#X connect 69 0 59 0;
#X connect 71 0 58 6;
#X connect 71 0 70 0;
#X connect 72 0 50 0;
#X connect 73 0 90 0;
#X connect 74 0 90 0;
#X connect 75 0 90 0;
#X connect 76 0 90 0;
#X connect 77 0 90 0;
#X connect 78 0 90 0;
#X connect 79 0 90 0;
#X connect 80 0 90 0;
#X connect 81 0 73 0;
#X connect 82 0 111 0;
#X connect 83 0 110 0;
#X connect 84 0 77 0;
#X connect 85 0 78 0;
#X connect 86 0 79 0;
#X connect 87 0 80 0;
#X connect 88 0 76 0;
#X connect 89 0 91 0;
#X connect 90 0 0 0;
#X connect 91 0 90 0;
#X connect 94 0 88 0;
#X connect 95 0 83 0;
#X connect 96 0 81 0;
#X connect 97 0 85 0;
#X connect 98 0 86 0;
#X connect 99 0 87 0;
#X connect 100 0 89 0;
#X connect 101 0 82 0;
#X connect 102 0 84 0;
#X connect 110 0 75 0;
#X connect 111 0 74 0;
#X connect 114 0 112 0;
#X connect 116 0 112 0;
#X connect 117 0 119 0;
#X connect 118 0 117 0;
#X connect 119 0 47 0;
#X connect 119 1 122 0;
#X connect 119 1 123 0;
#X connect 119 1 124 0;
#X connect 119 1 125 0;
#X connect 120 0 158 0;
#X connect 120 0 131 0;
#X connect 120 0 132 0;
#X connect 120 0 159 0;
#X connect 120 0 133 0;
#X connect 120 0 194 0;
#X connect 120 0 162 0;
#X connect 120 0 173 0;
#X connect 120 0 180 0;
#X connect 121 0 118 0;
#X connect 122 0 120 0;
#X connect 123 0 135 0;
#X connect 124 0 142 0;
#X connect 125 0 149 0;
#X connect 131 0 126 0;
#X connect 132 0 127 0;
#X connect 133 0 129 0;
#X connect 135 0 160 0;
#X connect 135 0 202 0;
#X connect 135 0 203 0;
#X connect 135 0 161 0;
#X connect 135 0 200 0;
#X connect 135 0 201 0;
#X connect 135 0 195 0;
#X connect 135 0 174 0;
#X connect 135 0 181 0;
#X connect 142 0 182 0;
#X connect 142 0 184 0;
#X connect 142 0 185 0;
#X connect 142 0 183 0;
#X connect 142 0 187 0;
#X connect 142 0 186 0;
#X connect 142 0 192 0;
#X connect 142 0 198 0;
#X connect 142 0 197 0;
#X connect 149 0 188 0;
#X connect 149 0 189 0;
#X connect 149 0 155 0;
#X connect 149 0 190 0;
#X connect 149 0 191 0;
#X connect 149 0 156 0;
#X connect 149 0 193 0;
#X connect 149 0 199 0;
#X connect 149 0 196 0;
#X connect 155 0 151 0;
#X connect 156 0 166 0;
#X connect 158 0 128 0;
#X connect 159 0 130 0;
#X connect 160 0 138 0;
#X connect 161 0 140 0;
#X connect 162 0 134 0;
#X connect 167 0 73 0;
#X connect 172 0 74 0;
#X connect 173 0 171 0;
#X connect 174 0 170 0;
#X connect 175 0 75 0;
#X connect 180 0 176 0;
#X connect 181 0 177 0;
#X connect 182 0 145 0;
#X connect 183 0 147 0;
#X connect 184 0 143 0;
#X connect 185 0 144 0;
#X connect 186 0 165 0;
#X connect 187 0 146 0;
#X connect 188 0 152 0;
#X connect 189 0 150 0;
#X connect 190 0 154 0;
#X connect 191 0 153 0;
#X connect 192 0 148 0;
#X connect 193 0 157 0;
#X connect 194 0 164 0;
#X connect 195 0 141 0;
#X connect 196 0 179 0;
#X connect 197 0 178 0;
#X connect 198 0 168 0;
#X connect 199 0 169 0;
#X connect 200 0 139 0;
#X connect 201 0 163 0;
#X connect 202 0 136 0;
#X connect 203 0 137 0;
