#N canvas 580 38 1920 1088 10;
#X declare -lib SDT;
#X obj 271 902 *~;
#X obj 271 968 dac~ 1 2;
#X floatatom 1899 199 5 0 0 0 - - - 0;
#X obj 1899 61 vsl 15 128 0 1000 0 0 empty empty empty 0 -9 0 10 #fcfcfc #000000 #000000 0 1;
#X msg 1898 37 100;
#X text 1894 13 Release;
#X floatatom 1436 607 5 0 0 0 - - - 0;
#X floatatom 1386 562 5 0 0 0 - - - 0;
#X obj 1517 655 r decay;
#X obj 1386 539 r peak_level;
#X obj 1899 248 s release;
#X obj 1426 859 vline~;
#X msg 1426 824 \$2 \$3 \, \$4 \$5 \$3 \, 0 \$6 \$7;
#X obj 1330 464 bng 15 250 50 0 empty empty empty 17 7 0 10 #fcfcfc #000000 #000000;
#X floatatom 1488 633 5 0 0 0 - - - 0;
#X floatatom 1517 678 5 0 0 0 - - - 0;
#X obj 1426 796 pack f f f f f f f;
#X obj 1832 685 t b f;
#X floatatom 1702 702 5 0 0 0 - - - 0;
#X floatatom 1541 738 5 0 0 0 - - - 0;
#X obj 1541 706 r release;
#X obj 1784 746 t b f;
#X obj 1784 706 +;
#X obj 1784 612 r attack;
#X obj 1832 633 r decay;
#X floatatom 1784 641 5 0 0 0 - - - 0;
#X floatatom 1832 661 5 0 0 0 - - - 0;
#X floatatom 1702 794 5 0 0 0 - - - 0;
#X obj 1702 767 +;
#X msg 1646 863 1 300 \, 0.7 100 300 \, 0 100 550;
#X msg 239 753 avgRate \$1;
#X msg 335 752 minRadius \$1;
#X msg 433 752 maxRadius \$1;
#X msg 531 752 expRadius \$1;
#X msg 625 752 minDepth \$1;
#X msg 715 752 maxDepth \$1;
#X msg 807 752 expDepth \$1;
#X msg 898 751 riseFactor \$1;
#X floatatom 239 710 8 0 100000 0 - - - 0;
#X floatatom 335 708 5 0 0 0 - - - 0;
#X floatatom 433 710 5 0 0 0 - - - 0;
#X floatatom 625 709 5 0 0 0 - - - 0;
#X floatatom 715 709 5 0 0 0 - - - 0;
#X floatatom 807 710 5 0 0 0 - - - 0;
#X floatatom 898 709 5 0 0 0 - - - 0;
#X floatatom 531 710 5 0 0 0 - - - 0;
#X floatatom 1004 710 5 0 0 0 - - - 0;
#X obj 239 811 fluidflow~ 128;
#X msg 1004 751 riseCutoff \$1;
#X text 228 513 fluidflow~ - Liquid sounds model;
#X msg 1083 471 Sound Design Toolkit \; (C) 2001 - 2021 \; \; Project SOb - soundobject.org \; Project CLOSED - closed.ircam.fr \; Project NIW - soundobject.org/niw \; Project SkAT-VG - skatvg.eu;
#X obj 531 569 vsl 15 128 0 10 0 0 empty expRadius empty 0 -9 0 10 #fcfcfc #000000 #000000 0 1;
#X obj 433 569 vsl 15 128 0.15 150 0 0 empty maxRadius empty 0 -9 0 10 #fcfcfc #000000 #000000 0 1;
#X obj 239 569 vsl 15 128 1 100000 1 0 empty avgRate empty 0 -9 0 10 #fcfcfc #000000 #000000 0 1;
#X obj 715 569 vsl 15 128 0 1 0 0 empty maxDepth empty 0 -9 0 10 #fcfcfc #000000 #000000 0 1;
#X obj 807 570 vsl 15 128 0 10 0 0 empty expDepth empty 0 -9 0 10 #fcfcfc #000000 #000000 0 1;
#X obj 898 569 vsl 15 128 0 4 0 0 empty riseFactor empty 0 -9 0 10 #fcfcfc #000000 #000000 0 1;
#X obj 1004 570 vsl 15 128 0 1 0 0 empty riseCutoff empty 0 -9 0 10 #fcfcfc #000000 #000000 0 1;
#X obj 335 567 vsl 15 128 0.15 150 0 0 empty minRadius empty 0 -9 0 10 #fcfcfc #000000 #000000 0 1;
#X obj 625 568 vsl 15 128 0 1 0 0 empty minDepth empty 0 -9 0 10 #fcfcfc #000000 #000000 0 1;
#X text 214 547 Bubbles/sec;
#X text 314 547 Min. and max. radius (mm);
#X text 502 548 Radius gamma;
#X text 620 548 Min. and max. depth;
#X text 779 549 Depth gamma;
#X text 870 549 Bloop amount;
#X text 955 549 Min. blooping depth;
#X obj 433 730 * 0.001;
#X obj 335 729 * 0.001;
#X msg 1123 631 \; avgRate 1000 \; minRadius 0.15 \; maxRadius 5 \; expRadius 3 \; minDepth 0 \; maxDepth 1 \; expDepth 1 \; riseFactor 0.1 \; riseCutoff 0.9 \;;
#X text 361 811 Arg: n. of voices (set it large for dense events);
#X obj 1133 609 loadbang;
#X obj 1192 559 declare -lib SDT;
#X obj 1123 587 r pd-dsp-started;
#X obj 32 62 list;
#X obj 32 38 oscparse;
#X obj 32 85 unpack s s;
#X obj 614 92 bng 16 250 50 0 empty empty empty 0 -8 0 10 #fcfcfc #000000 #000000;
#X obj 32 11 netreceive -u -b 3005;
#X obj 159 57 select LONG_ATTRACTING;
#X obj 162 153 select LITTLE_ATTRACTING;
#X obj 163 252 select STRONG_HOOKING;
#X obj 163 329 select STRONG_NOT_HOOKING;
#X obj 482 137 s attack;
#X obj 540 136 s decay;
#X obj 399 137 s peak_level;
#X obj 684 138 s sustain;
#X obj 588 138 s sustain_level;
#X msg 540 118 700;
#X msg 684 120 150;
#X obj 807 138 s bubbles;
#X obj 613 181 bng 16 250 50 0 empty empty empty 0 -8 0 10 #fcfcfc #000000 #000000;
#X obj 481 226 s attack;
#X obj 539 225 s decay;
#X obj 398 226 s peak_level;
#X obj 683 227 s sustain;
#X obj 587 227 s sustain_level;
#X obj 806 227 s bubbles;
#X obj 612 266 bng 16 250 50 0 empty empty empty 0 -8 0 10 #fcfcfc #000000 #000000;
#X obj 477 315 s attack;
#X obj 535 314 s decay;
#X obj 394 315 s peak_level;
#X obj 679 316 s sustain;
#X obj 583 316 s sustain_level;
#X obj 802 316 s bubbles;
#X obj 599 362 bng 16 250 50 0 empty empty empty 0 -8 0 10 #fcfcfc #000000 #000000;
#X obj 467 407 s attack;
#X obj 525 406 s decay;
#X obj 384 407 s peak_level;
#X obj 669 408 s sustain;
#X obj 573 408 s sustain_level;
#X msg 525 388 700;
#X msg 730 389 450;
#X obj 792 408 s bubbles;
#X msg 398 118 1;
#X msg 588 119 0.7;
#X msg 397 207 0.2;
#X msg 587 208 0.14;
#X msg 807 120 1000;
#X obj 744 226 s release;
#X obj 745 137 s release;
#X obj 740 315 s release;
#X obj 730 407 s release;
#X obj 180 711 r bubbles;
#X obj 864 316 s min_r;
#X obj 854 408 s min_r;
#X obj 868 227 s min_r;
#X obj 869 138 s min_r;
#X obj 269 668 r min_r;
#X msg 869 120 0.0015;
#X msg 868 209 0.001;
#X obj 376 667 r max_r;
#X obj 921 139 s max_r;
#X obj 920 228 s max_r;
#X obj 916 317 s max_r;
#X obj 906 409 s max_r;
#X msg 921 121 0.005;
#X msg 920 210 0.003;
#X msg 393 296 2;
#X msg 583 297 1.4;
#X msg 477 297 250;
#X msg 535 296 350;
#X msg 740 297 350;
#X msg 383 388 2;
#X msg 467 389 350;
#X msg 573 389 1.4;
#X msg 669 390 200;
#X msg 802 298 2000;
#X msg 792 390 3500;
#X msg 745 119 600;
#X msg 806 209 800;
#X msg 906 391 0.011;
#X msg 916 299 0.008;
#X msg 864 298 0.0015;
#X msg 854 390 0.0015;
#X msg 481 208 50;
#X msg 539 207 100;
#X obj 137 383 select NONE;
#X obj 242 412 bng 16 250 50 0 empty empty empty 0 -8 0 10 #fcfcfc #000000 #000000;
#X msg 306 428 stop;
#X obj 352 453 s stopMetro;
#X obj 1509 423 r stopMetro;
#X obj 970 414 s freqMetro;
#X obj 985 144 s freqMetro;
#X obj 983 231 s freqMetro;
#X obj 974 319 s freqMetro;
#X obj 1082 272 s startMetro;
#X obj 1404 415 r startMetro;
#X obj 1448 459 bng 15 250 50 0 empty empty empty 17 7 0 10 #fcfcfc #000000 #000000;
#X obj 1532 485 metro, f 10;
#X obj 1555 574 r sustain_level;
#X msg 744 208 250;
#X obj 1683 72 r sustain;
#X obj 1675 197 s sustain_random;
#X obj 1671 664 r sustain_random;
#X floatatom 1384 251 4 0 0 0 - - - 0;
#X msg 1251 149 seed 123;
#X obj 1328 147 bng 19 250 50 0 empty empty empty 17 7 0 10 #dfdfdf #000000 #000000;
#X obj 1232 116 loadbang;
#X obj 1439 143 r attack;
#X obj 1340 284 s attack_random;
#X obj 1436 577 r attack_random;
#X obj 1222 216 / 1000;
#X obj 1344 222 *;
#X floatatom 1684 172 4 0 0 0 - - - 0;
#X msg 1551 70 seed 123;
#X obj 1628 68 bng 19 250 50 0 empty empty empty 17 7 0 10 #dfdfdf #000000 #000000;
#X obj 1532 37 loadbang;
#X obj 1522 137 / 1000;
#X obj 1644 143 *;
#X obj 1232 179 random 600;
#X obj 1264 245 + 0.7;
#X obj 1532 100 random 600;
#X obj 1564 166 + 0.7;
#X floatatom 1696 332 4 0 0 0 - - - 0;
#X msg 1561 235 seed 123;
#X obj 1638 233 bng 19 250 50 0 empty empty empty 17 7 0 10 #dfdfdf #000000 #000000;
#X obj 1542 202 loadbang;
#X obj 1532 302 / 1000;
#X obj 1654 308 *;
#X obj 1693 237 r freqMetro;
#X obj 1740 363 s freqMetro_random;
#X obj 1591 427 r freqMetro_random;
#X msg 987 121 2;
#X msg 1751 306 tempo \$1 second;
#X obj 1542 265 random 400;
#X obj 1574 331 + 0.8;
#X msg 482 119 600;
#X msg 975 297 1;
#X msg 1083 331 stop;
#X obj 1109 357 s stopMetro;
#X obj 1054 309 timer 0.01 second;
#X msg 969 393 2;
#X msg 679 298 200;
#X msg 683 209 175;
#X msg 984 210 0.45;
#X connect 0 0 1 0;
#X connect 0 0 1 1;
#X connect 2 0 10 0;
#X connect 3 0 2 0;
#X connect 4 0 3 0;
#X connect 6 0 16 2;
#X connect 7 0 16 1;
#X connect 8 0 15 0;
#X connect 9 0 7 0;
#X connect 11 0 0 1;
#X connect 12 0 11 0;
#X connect 13 0 16 0;
#X connect 13 0 177 0;
#X connect 13 0 186 0;
#X connect 13 0 196 0;
#X connect 14 0 16 3;
#X connect 15 0 16 4;
#X connect 16 0 12 0;
#X connect 17 0 22 0;
#X connect 17 1 22 1;
#X connect 18 0 28 0;
#X connect 19 0 16 5;
#X connect 20 0 19 0;
#X connect 21 0 28 0;
#X connect 21 1 28 1;
#X connect 22 0 21 0;
#X connect 23 0 25 0;
#X connect 24 0 26 0;
#X connect 25 0 22 0;
#X connect 26 0 17 0;
#X connect 28 0 16 6;
#X connect 28 0 27 0;
#X connect 29 0 11 0;
#X connect 30 0 47 0;
#X connect 31 0 47 0;
#X connect 32 0 47 0;
#X connect 33 0 47 0;
#X connect 34 0 47 0;
#X connect 35 0 47 0;
#X connect 36 0 47 0;
#X connect 37 0 47 0;
#X connect 38 0 30 0;
#X connect 39 0 68 0;
#X connect 40 0 67 0;
#X connect 41 0 34 0;
#X connect 42 0 35 0;
#X connect 43 0 36 0;
#X connect 44 0 37 0;
#X connect 45 0 33 0;
#X connect 46 0 48 0;
#X connect 47 0 0 0;
#X connect 48 0 47 0;
#X connect 51 0 45 0;
#X connect 52 0 40 0;
#X connect 53 0 38 0;
#X connect 54 0 42 0;
#X connect 55 0 43 0;
#X connect 56 0 44 0;
#X connect 57 0 46 0;
#X connect 58 0 39 0;
#X connect 59 0 41 0;
#X connect 67 0 32 0;
#X connect 68 0 31 0;
#X connect 71 0 69 0;
#X connect 73 0 69 0;
#X connect 74 0 76 0;
#X connect 75 0 74 0;
#X connect 76 1 79 0;
#X connect 76 1 80 0;
#X connect 76 1 81 0;
#X connect 76 1 82 0;
#X connect 76 1 157 0;
#X connect 77 0 114 0;
#X connect 77 0 207 0;
#X connect 77 0 88 0;
#X connect 77 0 115 0;
#X connect 77 0 89 0;
#X connect 77 0 149 0;
#X connect 77 0 118 0;
#X connect 77 0 129 0;
#X connect 77 0 136 0;
#X connect 77 0 203 0;
#X connect 77 0 166 0;
#X connect 78 0 75 0;
#X connect 79 0 77 0;
#X connect 80 0 91 0;
#X connect 81 0 98 0;
#X connect 82 0 105 0;
#X connect 88 0 84 0;
#X connect 89 0 86 0;
#X connect 91 0 116 0;
#X connect 91 0 155 0;
#X connect 91 0 156 0;
#X connect 91 0 117 0;
#X connect 91 0 214 0;
#X connect 91 0 171 0;
#X connect 91 0 150 0;
#X connect 91 0 130 0;
#X connect 91 0 137 0;
#X connect 91 0 215 0;
#X connect 91 0 166 0;
#X connect 98 0 138 0;
#X connect 98 0 140 0;
#X connect 98 0 141 0;
#X connect 98 0 139 0;
#X connect 98 0 213 0;
#X connect 98 0 142 0;
#X connect 98 0 147 0;
#X connect 98 0 153 0;
#X connect 98 0 152 0;
#X connect 98 0 208 0;
#X connect 98 0 166 0;
#X connect 98 0 211 0;
#X connect 98 0 211 1;
#X connect 105 0 143 0;
#X connect 105 0 144 0;
#X connect 105 0 111 0;
#X connect 105 0 145 0;
#X connect 105 0 146 0;
#X connect 105 0 112 0;
#X connect 105 0 148 0;
#X connect 105 0 154 0;
#X connect 105 0 151 0;
#X connect 105 0 212 0;
#X connect 105 0 166 0;
#X connect 111 0 107 0;
#X connect 112 0 122 0;
#X connect 114 0 85 0;
#X connect 115 0 87 0;
#X connect 116 0 94 0;
#X connect 117 0 96 0;
#X connect 118 0 90 0;
#X connect 123 0 30 0;
#X connect 128 0 31 0;
#X connect 129 0 127 0;
#X connect 130 0 126 0;
#X connect 131 0 32 0;
#X connect 136 0 132 0;
#X connect 137 0 133 0;
#X connect 138 0 101 0;
#X connect 139 0 103 0;
#X connect 140 0 99 0;
#X connect 141 0 100 0;
#X connect 142 0 121 0;
#X connect 143 0 108 0;
#X connect 144 0 106 0;
#X connect 145 0 110 0;
#X connect 146 0 109 0;
#X connect 147 0 104 0;
#X connect 148 0 113 0;
#X connect 149 0 120 0;
#X connect 150 0 97 0;
#X connect 151 0 135 0;
#X connect 152 0 134 0;
#X connect 153 0 124 0;
#X connect 154 0 125 0;
#X connect 155 0 92 0;
#X connect 156 0 93 0;
#X connect 157 0 158 0;
#X connect 158 0 159 0;
#X connect 159 0 160 0;
#X connect 161 0 169 0;
#X connect 167 0 168 0;
#X connect 168 0 169 0;
#X connect 169 0 13 0;
#X connect 170 0 14 0;
#X connect 171 0 119 0;
#X connect 172 0 186 0;
#X connect 172 0 189 1;
#X connect 174 0 18 0;
#X connect 175 0 180 0;
#X connect 176 0 190 0;
#X connect 177 0 190 0;
#X connect 178 0 176 0;
#X connect 179 0 177 0;
#X connect 179 0 183 1;
#X connect 181 0 6 0;
#X connect 182 0 191 0;
#X connect 183 0 175 0;
#X connect 184 0 173 0;
#X connect 185 0 192 0;
#X connect 186 0 192 0;
#X connect 187 0 185 0;
#X connect 188 0 193 0;
#X connect 189 0 184 0;
#X connect 190 0 182 0;
#X connect 191 0 183 0;
#X connect 192 0 188 0;
#X connect 193 0 189 0;
#X connect 194 0 204 0;
#X connect 195 0 205 0;
#X connect 196 0 205 0;
#X connect 197 0 195 0;
#X connect 198 0 206 0;
#X connect 199 0 194 0;
#X connect 200 0 196 0;
#X connect 200 0 199 1;
#X connect 202 0 169 0;
#X connect 203 0 163 0;
#X connect 204 0 201 0;
#X connect 205 0 198 0;
#X connect 206 0 199 0;
#X connect 207 0 83 0;
#X connect 208 0 165 0;
#X connect 209 0 210 0;
#X connect 211 0 209 0;
#X connect 212 0 162 0;
#X connect 213 0 102 0;
#X connect 214 0 95 0;
#X connect 215 0 164 0;
