#N canvas 1183 136 1928 1000 12;
#X declare -lib SDT;
#X obj 36 130 oscparse;
#X listbox 131 160 20 0 0 0 - - - 0;
#X obj 36 187 list;
#X obj 36 92 netreceive -u -b 3004;
#X obj 578 538 r global_volume_fade;
#X obj 36 210 unpack s f f f;
#X obj 87 260 s tremolo;
#X obj 162 260 s global_volume_fade;
#X obj 419 676 dac~;
#X floatatom 522 346 5 0 0 0 - - - 0;
#X msg 1514 65 Sound Design Toolkit \; (C) 2001 - 2021 \; \; Project SOb - soundobject.org \; Project CLOSED - closed.ircam.fr \; Project NIW - soundobject.org/niw \; Project SkAT-VG - skatvg.eu;
#X obj 1593 229 loadbang;
#X obj 845 478 inertial bowfr;
#X obj 845 453 r bowfr;
#X obj 1101 454 r objectfr;
#X obj 1101 479 modal objectfr 3 1;
#X obj 522 415 friction~ bowfr objectfr 2;
#X msg 665 366 force \$1;
#X msg 797 365 kStatic \$1;
#X msg 882 365 kDynamic \$1;
#X msg 974 365 stiffness \$1;
#X msg 1077 366 dissipation \$1;
#X msg 1187 366 viscosity \$1;
#X msg 1289 366 noisiness \$1;
#X msg 1384 366 breakAway \$1;
#X obj 1289 207 vsl 15 128 0 1 0 0 empty noisiness empty 0 -9 0 10 #fcfcfc #000000 #000000 0 1;
#X obj 1187 207 vsl 15 128 0 40 0 0 empty viscosity empty 0 -9 0 10 #fcfcfc #000000 #000000 0 1;
#X obj 1077 207 vsl 15 128 0 40 0 0 empty dissipation empty 0 -9 0 10 #fcfcfc #000000 #000000 0 1;
#X obj 974 207 vsl 15 128 0 10000 0 0 empty stiffness empty 0 -9 0 10 #fcfcfc #000000 #000000 0 1;
#X obj 882 207 vsl 15 128 0 1 0 0 empty kDynamic empty 0 -9 0 10 #fcfcfc #000000 #000000 0 1;
#X obj 797 207 vsl 15 128 0 1 0 0 empty kStatic empty 0 -9 0 10 #fcfcfc #000000 #000000 0 1;
#X obj 665 207 vsl 15 128 0 3 0 0 empty force empty 0 -9 0 10 #fcfcfc #000000 #000000 0 1;
#X obj 1384 207 vsl 15 128 0 1 0 0 empty breakAway empty 0 -9 0 10 #fcfcfc #000000 #000000 0 1;
#X floatatom 665 346 5 0 0 0 - - - 0;
#X floatatom 797 345 5 0 0 0 - - - 0;
#X floatatom 882 345 5 0 0 0 - - - 0;
#X floatatom 974 345 5 0 0 0 - - - 0;
#X floatatom 1077 345 5 0 0 0 - - - 0;
#X floatatom 1187 345 5 0 0 0 - - - 0;
#X floatatom 1384 345 5 0 0 0 - - - 0;
#X floatatom 1289 345 5 0 0 0 - - - 0;
#X obj 522 207 vsl 15 128 -3 3 0 0 empty lateralForce empty 0 -9 0 10 #fcfcfc #000000 #000000 0 1;
#X text 484 184 Lateral force (N);
#X text 608 184 Perpendicular force (N);
#X text 780 185 Static K;
#X text 860 185 Dynamic K;
#X text 931 185 Surface stiffness;
#X text 1050 185 Dissipation;
#X text 1140 185 Surface viscosity;
#X text 1268 185 Noisiness;
#X text 1347 185 Break away velocity;
#X text 714 416 Args: 1st obj ID \, 2nd obj ID \, n. of outlets;
#X text 968 479 Args: object ID;
#X text 1245 479 Args: object ID \, n. of modes \, n. of pickups;
#X obj 407 395 r fr;
#X obj 1622 153 declare -lib SDT;
#X obj 1532 207 r pd-dsp-started;
#X obj 433 234 r tremolo;
#X msg 1532 255 \; bowfr mass 0.01 \; bowfr fragmentSize 1 \; objectfr freqs 500 1300 1700 \; objectfr decays 0.03 0.02 0.01 \; objectfr pickup 0 100 100 100 \; objectfr activeModes 3 \; objectfr fragmentSize 1 \; fr contact0 0 \; fr contact1 0 \; lateralForce 0 \; force 0.5 \; kStatic 0.95 \; kDynamic 0.15 \; stiffness 500 \; dissipation 20 \; viscosity 14 \; noisiness 0.125 \; breakAway 0 \;;
#X obj 466 601 *~;
#X obj 473 541 *~;
#X obj 541 577 * 10000;
#X floatatom 293 474 5 0 0 0 - - - 0;
#X floatatom 640 586 5 0 0 0 - - - 0;
#X floatatom 358 362 5 0 0 0 - - - 0;
#X floatatom 387 264 5 0 0 0 - - - 0;
#X obj 443 341 + 1.27;
#X obj 437 294 * 0.98;
#X obj 21 260 s volumeW;
#X obj 357 437 r volumeW;
#X connect 0 0 1 0;
#X connect 0 0 2 0;
#X connect 2 0 5 0;
#X connect 3 0 0 0;
#X connect 4 0 61 0;
#X connect 4 0 63 0;
#X connect 5 1 68 0;
#X connect 5 2 6 0;
#X connect 5 3 7 0;
#X connect 9 0 16 0;
#X connect 11 0 58 0;
#X connect 13 0 12 0;
#X connect 14 0 15 0;
#X connect 16 1 60 1;
#X connect 17 0 16 0;
#X connect 18 0 16 0;
#X connect 19 0 16 0;
#X connect 20 0 16 0;
#X connect 21 0 16 0;
#X connect 22 0 16 0;
#X connect 23 0 16 0;
#X connect 24 0 16 0;
#X connect 25 0 40 0;
#X connect 26 0 38 0;
#X connect 27 0 37 0;
#X connect 28 0 36 0;
#X connect 29 0 35 0;
#X connect 30 0 34 0;
#X connect 31 0 33 0;
#X connect 32 0 39 0;
#X connect 33 0 17 0;
#X connect 34 0 18 0;
#X connect 35 0 19 0;
#X connect 36 0 20 0;
#X connect 37 0 21 0;
#X connect 38 0 22 0;
#X connect 39 0 24 0;
#X connect 40 0 23 0;
#X connect 41 0 9 0;
#X connect 54 0 16 0;
#X connect 56 0 58 0;
#X connect 57 0 65 0;
#X connect 57 0 67 0;
#X connect 59 0 8 0;
#X connect 59 0 8 1;
#X connect 60 0 59 0;
#X connect 61 0 59 1;
#X connect 66 0 64 0;
#X connect 66 0 16 0;
#X connect 67 0 66 0;
#X connect 69 0 62 0;
#X connect 69 0 60 0;
#X coords 0 0 20557 1 0 0 0;
