#N canvas 445 28 962 593 12;
#N canvas 0 50 450 250 (subpatch) 0;
#X array soundData 100 float 5;
#X coords 0 1 99 -1 200 140 1;
#X restore 644 135 graph;
#X obj 52 88 soundfiler;
#X msg 51 51 read -resize sounds/whip.wav soundData;
#X obj 550 128 nbx 5 17 -1e+37 1e+37 0 0 empty empty empty 0 -10 0 12 #fcfcfc #000000 #000000 0 256;
#X obj 156 413 phasor~;
#X obj 531 467 *~;
#X obj 530 506 tabread4~ soundData;
#X obj 531 535 dac~;
#X msg 91 381 0;
#X obj 88 354 delay;
#X obj 316 194 netreceive -u -b 3000;
#X floatatom 51 225 5 0 0 0 - - - 0;
#X floatatom 87 315 5 0 0 0 - - - 0;
#X obj 52 4 loadbang;
#X obj 45 174 expr $f1*1000/44100;
#X obj 59 265 expr abs($f1/($f2+0.0001));
#X obj 245 180 bng 19 250 50 0 empty empty empty 0 -10 0 12 #fcfcfc #000000 #000000;
#X floatatom 277 236 5 0 0 0 - - - 0;
#X connect 1 0 3 0;
#X connect 2 0 1 0;
#X connect 3 0 14 0;
#X connect 3 0 5 0;
#X connect 4 0 5 0;
#X connect 5 0 6 0;
#X connect 6 0 7 0;
#X connect 8 0 4 0;
#X connect 9 0 8 0;
#X connect 10 0 17 0;
#X connect 11 0 15 0;
#X connect 12 0 9 0;
#X connect 13 0 2 0;
#X connect 14 0 11 0;
#X connect 15 0 12 0;
#X connect 16 0 17 0;
#X connect 17 0 15 1;
#X connect 17 0 4 0;
#X coords 0 0 20557 1 0 0 0;
