#N canvas 1762 -297 1370 729 10;
#X obj 314 396 *~;
#X obj 313 423 dac~;
#X obj 13 175 loadbang;
#X obj 16 336 vline~;
#X obj 122 219 soundfiler;
#X msg 16 273 0;
#X obj 16 293 pack f f f;
#X msg 16 316 \$1 \, \$2 \$3;
#X obj 122 239 / 48;
#X obj 122 286 metro;
#X obj 16 249 loadbang;
#X msg 122 263 tempo \$1 msec;
#X obj 272 17 netreceive -u -b 3002;
#X obj 272 68 list;
#X obj 272 44 oscparse;
#X floatatom 329 125 5 0 0 0 - - - 0;
#X obj 272 91 unpack s f;
#X obj 16 357 tabread4~ tricklingData;
#X msg 13 195 read -resize sounds/trickling.wav tricklingData;
#X connect 0 0 1 0;
#X connect 0 0 1 1;
#X connect 2 0 18 0;
#X connect 3 0 17 0;
#X connect 4 0 6 1;
#X connect 4 0 8 0;
#X connect 5 0 6 0;
#X connect 6 0 7 0;
#X connect 7 0 3 0;
#X connect 8 0 6 2;
#X connect 8 0 11 0;
#X connect 9 0 5 0;
#X connect 10 0 5 0;
#X connect 10 0 9 0;
#X connect 11 0 9 0;
#X connect 12 0 14 0;
#X connect 13 0 16 0;
#X connect 14 0 13 0;
#X connect 15 0 0 1;
#X connect 16 1 15 0;
#X connect 17 0 0 0;
#X connect 18 0 4 0;
