#N canvas 1271 0 1276 1451 12;
#X declare -lib SDT;
#X obj 550 93 soundfiler;
#X obj 550 128 nbx 5 17 -1e+37 1e+37 0 0 empty empty empty 0 -10 0 12 #fcfcfc #000000 #000000 0 256;
#X msg 156 358 0;
#X obj 156 331 delay;
#X obj 55 30 netreceive -u -b 3003;
#X floatatom 335 224 5 0 0 0 - - - 0;
#X floatatom 156 303 5 0 0 0 - - - 0;
#X floatatom 55 222 5 0 0 0 - - - 0;
#X obj 156 270 expr abs($f2/($f1+0.0001));
#X text 94 223 speed/pitch change;
#X text 186 358 only play once;
#X obj 156 402 phasor~;
#X obj 55 68 oscparse;
#X listbox 150 98 20 0 0 0 - - - 0;
#X obj 335 173 expr $f1/24;
#X obj 55 125 list;
#X obj 55 148 unpack s f f;
#X obj 136 190 send volume;
#X obj 531 564 *~;
#X msg 550 56 read -resize sounds/wheel.wav wheelData;
#X obj 531 496 tabread4~ wheelData;
#X obj 93 936 dcmotor~;
#X floatatom 162 875 5 0 0 0 - - - 0;
#X msg 224 898 coils \$1;
#X msg 310 898 size \$1;
#X msg 404 897 reson \$1;
#X msg 498 897 gearRatio \$1;
#X msg 583 896 harshness \$1;
#X msg 661 798 rotorGain \$1;
#X msg 768 895 gearGain \$1;
#X msg 863 895 brushGain \$1;
#X msg 956 895 airGain \$1;
#X floatatom 224 875 5 0 0 0 - - - 0;
#X floatatom 310 875 5 0 0 0 - - - 0;
#X floatatom 404 874 5 0 0 0 - - - 0;
#X floatatom 498 873 5 0 0 0 - - - 0;
#X floatatom 583 873 5 0 0 0 - - - 0;
#X floatatom 641 738 5 0 0 0 - - - 0;
#X floatatom 768 871 5 0 0 0 - - - 0;
#X floatatom 863 872 5 0 0 0 - - - 0;
#X floatatom 956 871 5 0 0 0 - - - 0;
#X obj 92 1092 dac~, f 7;
#X obj 956 704 vsl 15 128 0 1 0 0 empty airGain empty 0 -9 0 10 #fcfcfc #000000 #000000 0 1;
#X obj 404 707 vsl 15 128 0 1 0 0 empty reson empty 0 -9 0 10 #fcfcfc #000000 #000000 0 1;
#X obj 583 706 vsl 15 128 0 1 0 0 empty harshness empty 0 -9 0 10 #fcfcfc #000000 #000000 0 1;
#X obj 224 708 vsl 15 128 2 128 0 0 empty coils empty 0 -9 0 10 #fcfcfc #000000 #000000 0 1;
#X obj 310 707 vsl 15 128 0.01 10 1 0 empty size empty 0 -9 0 10 #fcfcfc #000000 #000000 0 1;
#X obj 498 706 vsl 15 128 0 10 0 0 empty gearRatio empty 0 -9 0 10 #fcfcfc #000000 #000000 0 1;
#X obj 674 598 vsl 15 128 0 1 0 0 empty rotorGain empty 0 -9 0 10 #fcfcfc #000000 #000000 0 1;
#X obj 768 706 vsl 15 128 0 1 0 0 empty gearGain empty 0 -9 0 10 #fcfcfc #000000 #000000 0 1;
#X obj 863 705 vsl 15 128 0 1 0 0 empty brushGain empty 0 -9 0 10 #fcfcfc #000000 #000000 0 1;
#X obj 224 848 int;
#X obj 93 985 hip~ 10;
#X msg 931 521 Sound Design Toolkit \; (C) 2001 - 2021 \; \; Project SOb - soundobject.org \; Project CLOSED - closed.ircam.fr \; Project NIW - soundobject.org/niw \; Project SkAT-VG - skatvg.eu;
#X obj 162 708 vsl 15 128 0 1 0 0 empty load empty 0 -9 0 10 #fcfcfc #000000 #000000 0 1;
#X text 154 685 Load;
#X text 200 685 Rotor coils;
#X text 282 685 Chassis size;
#X text 371 685 Chassis reson.;
#X text 473 684 Gear ratio;
#X text 562 684 Harshness;
#X text 635 564 Rotor noise;
#X text 743 684 Gear noise;
#X text 834 684 Brush noise;
#X text 933 684 Fan noise;
#X obj 1095 683 loadbang;
#X obj 1049 609 declare -lib SDT;
#X obj 1048 664 r pd-dsp-started;
#X text 97 603 comment;
#X obj 532 472 *~;
#X obj 219 964 receive volume;
#X text 63 917 comment;
#X obj 112 708 vsl 15 128 0 20000 0 0 empty RPM empty 0 -9 0 10 #fcfcfc #000000 #000000 0 1;
#X text 103 679 RPM;
#X floatatom 46 783 5 0 0 0 - - - 0;
#X obj 550 9 loadbang;
#X obj 78 418 loadbang;
#X obj 50 501 *, f 7;
#X obj 150 1025 *~;
#X obj 41 1030 *~;
#X floatatom 107 838 5 0 0 0 - - - 0;
#X msg 95 458 600;
#X msg 1048 704 \; load 0 \; coils 2 \; size 0.012 \; reson 0.85 \; gearRatio 0 \; harshness 0.834 \; rotorGain 0 \; gearGain 0 \; brushGain 0.039 \; airGain 0 \;;
#X connect 0 0 1 0;
#X connect 1 0 14 0;
#X connect 1 0 69 1;
#X connect 2 0 11 0;
#X connect 2 0 11 1;
#X connect 3 0 2 0;
#X connect 4 0 12 0;
#X connect 5 0 8 1;
#X connect 6 0 3 0;
#X connect 7 0 77 0;
#X connect 8 0 6 0;
#X connect 11 0 69 0;
#X connect 12 0 13 0;
#X connect 12 0 15 0;
#X connect 14 0 5 0;
#X connect 15 0 16 0;
#X connect 16 1 7 0;
#X connect 16 2 17 0;
#X connect 19 0 0 0;
#X connect 20 0 18 0;
#X connect 21 0 52 0;
#X connect 22 0 21 1;
#X connect 23 0 21 0;
#X connect 24 0 21 0;
#X connect 25 0 21 0;
#X connect 26 0 21 0;
#X connect 27 0 21 0;
#X connect 28 0 21 0;
#X connect 29 0 21 0;
#X connect 30 0 21 0;
#X connect 31 0 21 0;
#X connect 32 0 23 0;
#X connect 33 0 24 0;
#X connect 34 0 25 0;
#X connect 35 0 26 0;
#X connect 36 0 27 0;
#X connect 37 0 28 0;
#X connect 38 0 29 0;
#X connect 39 0 30 0;
#X connect 40 0 31 0;
#X connect 42 0 40 0;
#X connect 43 0 34 0;
#X connect 44 0 36 0;
#X connect 45 0 51 0;
#X connect 46 0 33 0;
#X connect 47 0 35 0;
#X connect 48 0 37 0;
#X connect 49 0 38 0;
#X connect 50 0 39 0;
#X connect 51 0 32 0;
#X connect 52 0 78 0;
#X connect 52 0 79 0;
#X connect 54 0 22 0;
#X connect 65 0 82 0;
#X connect 67 0 82 0;
#X connect 69 0 20 0;
#X connect 70 0 78 1;
#X connect 70 0 79 1;
#X connect 72 0 80 0;
#X connect 74 0 21 0;
#X connect 75 0 19 0;
#X connect 76 0 81 0;
#X connect 77 0 74 0;
#X connect 78 0 41 1;
#X connect 79 0 41 0;
#X connect 81 0 77 1;
#X coords 0 0 20557 1 0 0 0;
