#N canvas 76 43 1050 459 10;
#N canvas 0 50 450 250 (subpatch) 0;
#X array calmSongData 5.90223e+06 float 4;
#X coords 0 1 5.90223e+06 -1 200 140 1 0 0;
#X restore 815 90 graph;
#X obj 655 401 *~;
#X obj 655 430 dac~;
#X obj 378 171 loadbang;
#X obj 314 396 *~;
#X obj 313 423 dac~;
#X obj 13 175 loadbang;
#N canvas 0 50 450 250 (subpatch) 0;
#X array actionSongData 5.90223e+06 float 4;
#X coords 0 1 5.90223e+06 -1 200 140 1 0 0;
#X restore 818 307 graph;
#X msg 13 195 read -resize sounds/song_action.wav actionSongData;
#X msg 378 191 read -resize sounds/song_calm.wav calmSongData;
#X obj 16 357 tabread4~ actionSongData;
#X obj 380 362 tabread4~ calmSongData;
#X obj 16 336 vline~;
#X obj 122 219 soundfiler;
#X msg 16 273 0;
#X obj 380 341 vline~;
#X obj 488 216 soundfiler;
#X msg 380 275 0;
#X obj 16 293 pack f f f;
#X obj 380 295 pack f f f;
#X msg 380 319 \$1 \, \$2 \$3;
#X msg 16 316 \$1 \, \$2 \$3;
#X obj 122 239 / 48;
#X obj 488 236 / 48;
#X obj 122 286 metro;
#X obj 488 279 metro;
#X obj 380 254 loadbang;
#X obj 16 249 loadbang;
#X msg 122 263 tempo \$1 msec;
#X msg 488 258 tempo \$1 msec;
#X obj 375 14 netreceive -u -b 3002;
#X obj 375 65 list;
#X obj 375 41 oscparse;
#X floatatom 329 125 5 0 0 0 - - - 0;
#X floatatom 670 131 5 0 0 0 - - - 0;
#X obj 375 88 unpack s f f;
#X connect 1 0 2 0;
#X connect 1 0 2 1;
#X connect 3 0 9 0;
#X connect 4 0 5 0;
#X connect 4 0 5 1;
#X connect 6 0 8 0;
#X connect 8 0 13 0;
#X connect 9 0 16 0;
#X connect 10 0 4 0;
#X connect 11 0 1 0;
#X connect 12 0 10 0;
#X connect 13 0 18 1;
#X connect 13 0 22 0;
#X connect 14 0 18 0;
#X connect 15 0 11 0;
#X connect 16 0 19 1;
#X connect 16 0 23 0;
#X connect 17 0 19 0;
#X connect 18 0 21 0;
#X connect 19 0 20 0;
#X connect 20 0 15 0;
#X connect 21 0 12 0;
#X connect 22 0 18 2;
#X connect 22 0 28 0;
#X connect 23 0 19 2;
#X connect 23 0 29 0;
#X connect 24 0 14 0;
#X connect 25 0 17 0;
#X connect 26 0 17 0;
#X connect 26 0 25 0;
#X connect 27 0 14 0;
#X connect 27 0 24 0;
#X connect 28 0 24 0;
#X connect 29 0 25 0;
#X connect 30 0 32 0;
#X connect 31 0 35 0;
#X connect 32 0 31 0;
#X connect 33 0 4 1;
#X connect 34 0 1 1;
#X connect 35 1 33 0;
#X connect 35 2 34 0;
