#N canvas 241 5 962 617 12;
#N canvas 0 50 450 250 (subpatch) 0;
#X array wheelData 5182 float 4;
#X coords 0 1 5181 -1 200 140 1 0 0;
#X restore 644 135 graph;
#X obj 550 93 soundfiler;
#X obj 550 128 nbx 5 17 -1e+37 1e+37 0 0 empty empty empty 0 -10 0 12 #fcfcfc #000000 #000000 0 256;
#X obj 532 472 *~;
#X obj 532 589 dac~;
#X msg 156 358 0;
#X obj 156 331 delay;
#X obj 55 30 netreceive -u -b 3003;
#X floatatom 335 224 5 0 0 0 - - - 0;
#X floatatom 156 303 5 0 0 0 - - - 0;
#X obj 550 9 loadbang;
#X floatatom 55 222 5 0 0 0 - - - 0;
#X obj 156 270 expr abs($f2/($f1+0.0001));
#X text 94 223 speed/pitch change;
#X text 186 358 only play once;
#X obj 156 402 phasor~;
#X obj 55 68 oscparse;
#X listbox 150 98 20 0 0 0 - - - 0;
#X obj 335 173 expr $f1/24;
#X obj 55 125 list;
#X obj 55 148 unpack s f f;
#X obj 136 190 send volume;
#X obj 531 564 *~;
#X obj 549 528 receive volume;
#X msg 550 56 read -resize sounds/wheel.wav wheelData;
#X obj 531 496 tabread4~ wheelData;
#X connect 1 0 2 0;
#X connect 2 0 3 1;
#X connect 2 0 18 0;
#X connect 3 0 25 0;
#X connect 5 0 15 0;
#X connect 5 0 15 1;
#X connect 6 0 5 0;
#X connect 7 0 16 0;
#X connect 8 0 12 1;
#X connect 9 0 6 0;
#X connect 10 0 24 0;
#X connect 11 0 12 0;
#X connect 11 0 15 0;
#X connect 12 0 9 0;
#X connect 15 0 3 0;
#X connect 16 0 17 0;
#X connect 16 0 19 0;
#X connect 18 0 8 0;
#X connect 19 0 20 0;
#X connect 20 1 11 0;
#X connect 20 2 21 0;
#X connect 22 0 4 0;
#X connect 22 0 4 1;
#X connect 23 0 22 1;
#X connect 24 0 1 0;
#X connect 25 0 22 0;
#X coords 0 0 20557 1 0 0 0;
