#N canvas 1510 -334 962 617 12;
#X obj 55 68 oscparse;
#X listbox 150 98 20 0 0 0 - - - 0;
#X obj 55 125 list;
#X obj 55 30 netreceive -u -b 3004;
#X obj 192 340 osc~ 432;
#X floatatom 192 311 5 0 0 0 - - - 0;
#N canvas 0 22 450 300 (subpatch) 0;
#X array tremolo 1000 float 0;
#X coords 0 1 999 -1 200 100 1 0 0;
#X restore 20 545 graph;
#X obj 44 445 tgl 15 1 empty empty empty 0 -6 0 10 #fcfcfc #000000 #000000 1 1;
#X text 65 443 Graph output;
#X obj 274 395 *~;
#X obj 44 468 metro 100;
#X obj 291 290 nbx 5 14 -1e+37 1e+37 0 0 empty empty empty 0 -6 0 10 #fcfcfc #000000 #000000 0 256;
#X obj 291 308 osc~ 0.5;
#X obj 274 791 *~;
#X obj 274 823 dac~ 1 2;
#X obj 289 753 line~;
#X obj 289 725 pack 0 500;
#X obj 289 696 r global_volume_fade;
#X floatatom 374 587 5 0 0 0 - - - 0;
#X obj 374 639 line~;
#X obj 374 614 pack 0 50;
#X obj 274 671 *~;
#X obj 7 496 tabwrite~ tremolo;
#X text 377 311 The "low-frequency oscillator" (LFO) [osc~] often has a frequency slower than 20 Hz.;
#X text 481 -2 Tremolo is a form of Amplitude Modulation where the gain of an audio signal is changed at a very slow rate \, often at a frequency below the range of hearing (approximately 20 Hz): "low frequency oscillator (LFO).;
#X obj 291 341 +~ 1;
#X obj 291 372 *~ 0.5;
#X text 458 218 [osc~] normally moves between -1 and 1 \, so we scaled it so that it's output is now from 0 to 1 (we sum 1 and then divide by 2);
#X text 379 344 Multiplying the input signal by output of the LFO causes a modulation of the gain of the input signal.;
#X obj 55 148 unpack s f f f;
#X obj 40 198 s volume;
#X obj 106 198 s tremolo;
#X obj 181 198 s global_volume_fade;
#X obj 374 526 r volume;
#X obj 291 239 r tremolo;
#X msg 192 285 300;
#X obj 192 257 loadbang;
#X obj 291 265 * 20;
#X connect 0 0 1 0;
#X connect 0 0 2 0;
#X connect 2 0 29 0;
#X connect 3 0 0 0;
#X connect 4 0 9 0;
#X connect 5 0 4 0;
#X connect 7 0 10 0;
#X connect 9 0 21 0;
#X connect 9 0 22 0;
#X connect 10 0 22 0;
#X connect 11 0 12 0;
#X connect 12 0 25 0;
#X connect 13 0 14 0;
#X connect 13 0 14 1;
#X connect 15 0 13 1;
#X connect 16 0 15 0;
#X connect 17 0 16 0;
#X connect 18 0 20 0;
#X connect 19 0 21 1;
#X connect 20 0 19 0;
#X connect 21 0 13 0;
#X connect 25 0 26 0;
#X connect 26 0 9 1;
#X connect 29 1 30 0;
#X connect 29 2 31 0;
#X connect 29 3 32 0;
#X connect 33 0 18 0;
#X connect 34 0 37 0;
#X connect 35 0 5 0;
#X connect 36 0 35 0;
#X connect 37 0 11 0;
#X coords 0 0 20557 1 0 0 0;
