#N canvas 76 96 1050 407 10;
#X obj 329 5 hsl 136 16 0 1 0 0 empty empty empty -2 -8 0 10 #fcfcfc #000000 #000000 0 1;
#X floatatom 326 84 5 0 0 0 - - - 0;
#X msg 746 41 1;
#X obj 667 66 expr $f2-$f1;
#X floatatom 667 93 5 0 0 0 - - - 0;
#X obj 746 21 loadbang;
#N canvas 0 50 450 250 (subpatch) 0;
#X array calmSongData 5.90223e+06 float 4;
#X coords 0 1 5.90223e+06 -1 200 140 1 0 0;
#X restore 812 22 graph;
#X obj 652 333 *~;
#X obj 652 362 dac~;
#X obj 375 103 loadbang;
#X obj 311 328 *~;
#X obj 310 355 dac~;
#X obj 10 107 loadbang;
#N canvas 0 50 450 250 (subpatch) 0;
#X array actionSongData 5.90223e+06 float 4;
#X coords 0 1 5.90223e+06 -1 200 140 1 0 0;
#X restore 815 239 graph;
#X msg 10 127 read -resize sounds/song_action.wav actionSongData;
#X msg 375 123 read -resize sounds/song_calm.wav calmSongData;
#X obj 13 289 tabread4~ actionSongData;
#X obj 377 294 tabread4~ calmSongData;
#X obj 13 268 vline~;
#X obj 119 151 soundfiler;
#X msg 13 205 0;
#X obj 377 273 vline~;
#X obj 485 148 soundfiler;
#X msg 377 207 0;
#X obj 13 225 pack f f f;
#X obj 377 227 pack f f f;
#X msg 377 251 \$1 \, \$2 \$3;
#X msg 13 248 \$1 \, \$2 \$3;
#X obj 119 171 / 48;
#X floatatom 119 193 10 0 0 0 - - - 0;
#X obj 485 168 / 48;
#X floatatom 485 189 10 0 0 0 - - - 0;
#X obj 119 237 metro;
#X obj 485 230 metro;
#X obj 377 186 loadbang;
#X obj 13 181 loadbang;
#X msg 119 214 tempo \$1 msec;
#X msg 485 209 tempo \$1 msec;
#X connect 0 0 1 0;
#X connect 0 0 3 0;
#X connect 1 0 10 1;
#X connect 2 0 3 1;
#X connect 3 0 4 0;
#X connect 4 0 7 1;
#X connect 5 0 2 0;
#X connect 7 0 8 0;
#X connect 7 0 8 1;
#X connect 9 0 15 0;
#X connect 10 0 11 0;
#X connect 10 0 11 1;
#X connect 12 0 14 0;
#X connect 14 0 19 0;
#X connect 15 0 22 0;
#X connect 16 0 10 0;
#X connect 17 0 7 0;
#X connect 18 0 16 0;
#X connect 19 0 24 1;
#X connect 19 0 28 0;
#X connect 20 0 24 0;
#X connect 21 0 17 0;
#X connect 22 0 25 1;
#X connect 22 0 30 0;
#X connect 23 0 25 0;
#X connect 24 0 27 0;
#X connect 25 0 26 0;
#X connect 26 0 21 0;
#X connect 27 0 18 0;
#X connect 28 0 24 2;
#X connect 28 0 29 0;
#X connect 29 0 36 0;
#X connect 30 0 31 0;
#X connect 30 0 25 2;
#X connect 31 0 37 0;
#X connect 32 0 20 0;
#X connect 33 0 23 0;
#X connect 34 0 23 0;
#X connect 34 0 33 1;
#X connect 35 0 20 0;
#X connect 35 0 32 1;
#X connect 36 0 32 0;
#X connect 37 0 33 0;
