#N canvas 1403 -428 1864 734 10;
#X obj 655 401 *~;
#X obj 655 430 dac~;
#X obj 378 171 loadbang;
#X obj 314 396 *~;
#X obj 313 423 dac~;
#X obj 13 175 loadbang;
#X obj 16 336 vline~;
#X obj 122 219 soundfiler;
#X msg 16 273 0;
#X obj 380 341 vline~;
#X obj 488 216 soundfiler;
#X msg 380 275 0;
#X obj 16 293 pack f f f;
#X obj 380 295 pack f f f;
#X msg 380 319 \$1 \, \$2 \$3;
#X msg 16 316 \$1 \, \$2 \$3;
#X obj 122 239 / 48;
#X obj 488 236 / 48;
#X obj 122 286 metro;
#X obj 488 279 metro;
#X obj 380 254 loadbang;
#X obj 16 249 loadbang;
#X msg 122 263 tempo \$1 msec;
#X msg 488 258 tempo \$1 msec;
#X obj 375 14 netreceive -u -b 3002;
#X obj 375 65 list;
#X obj 375 41 oscparse;
#X floatatom 329 125 5 0 0 0 - - - 0;
#X floatatom 670 131 5 0 0 0 - - - 0;
#X obj 1374 403 *~;
#X obj 1374 432 dac~;
#X obj 1097 173 loadbang;
#X obj 1033 398 *~;
#X obj 1032 425 dac~;
#X obj 732 177 loadbang;
#X obj 735 338 vline~;
#X obj 841 221 soundfiler;
#X msg 735 275 0;
#X obj 1099 343 vline~;
#X obj 1207 218 soundfiler;
#X msg 1099 277 0;
#X obj 735 295 pack f f f;
#X obj 1099 297 pack f f f;
#X msg 1099 321 \$1 \, \$2 \$3;
#X msg 735 318 \$1 \, \$2 \$3;
#X obj 841 241 / 48;
#X obj 1207 238 / 48;
#X obj 841 288 metro;
#X obj 1207 281 metro;
#X obj 1099 256 loadbang;
#X obj 735 251 loadbang;
#X msg 841 265 tempo \$1 msec;
#X msg 1207 260 tempo \$1 msec;
#X floatatom 1048 127 5 0 0 0 - - - 0;
#X floatatom 1389 133 5 0 0 0 - - - 0;
#X obj 375 88 unpack s f f f f;
#X msg 13 195 read -resize sounds/song_flute.wav fluteSongData;
#X obj 16 357 tabread4~ fluteSongData;
#X obj 380 362 tabread4~ bassSongData;
#X obj 735 359 tabread4~ guitarSongData;
#X obj 1099 364 tabread4~ drumsSongData;
#X msg 732 197 read -resize sounds/song_guitar.wav guitarSongData;
#X msg 378 191 read -resize sounds/song_bass.wav bassSongData;
#N canvas 0 50 450 250 (subpatch) 0;
#X array fluteSongData 839294 float 2;
#X coords 0 1 839294 -1 200 140 1;
#X restore 85 491 graph;
#N canvas 0 50 450 250 (subpatch) 0;
#X array bassSongData 839294 float 2;
#X coords 0 1 839294 -1 200 140 1;
#X restore 441 491 graph;
#N canvas 0 50 450 250 (subpatch) 0;
#X array guitarSongData 839294 float 2;
#X coords 0 1 839294 -1 200 140 1;
#X restore 797 491 graph;
#N canvas 0 50 450 250 (subpatch) 0;
#X array drumsSongData 839294 float 2;
#X coords 0 1 839294 -1 200 140 1;
#X restore 1170 492 graph;
#X msg 1097 193 read -resize sounds/song_drums.wav drumsSongData;
#X connect 0 0 1 0;
#X connect 0 0 1 1;
#X connect 2 0 62 0;
#X connect 3 0 4 0;
#X connect 3 0 4 1;
#X connect 5 0 56 0;
#X connect 6 0 57 0;
#X connect 7 0 12 1;
#X connect 7 0 16 0;
#X connect 8 0 12 0;
#X connect 9 0 58 0;
#X connect 10 0 13 1;
#X connect 10 0 17 0;
#X connect 11 0 13 0;
#X connect 12 0 15 0;
#X connect 13 0 14 0;
#X connect 14 0 9 0;
#X connect 15 0 6 0;
#X connect 16 0 12 2;
#X connect 16 0 22 0;
#X connect 17 0 13 2;
#X connect 17 0 23 0;
#X connect 18 0 8 0;
#X connect 19 0 11 0;
#X connect 20 0 11 0;
#X connect 20 0 19 0;
#X connect 21 0 8 0;
#X connect 21 0 18 0;
#X connect 22 0 18 0;
#X connect 23 0 19 0;
#X connect 24 0 26 0;
#X connect 25 0 55 0;
#X connect 26 0 25 0;
#X connect 27 0 3 1;
#X connect 28 0 0 1;
#X connect 29 0 30 0;
#X connect 29 0 30 1;
#X connect 31 0 67 0;
#X connect 32 0 33 0;
#X connect 32 0 33 1;
#X connect 34 0 61 0;
#X connect 35 0 59 0;
#X connect 36 0 41 1;
#X connect 36 0 45 0;
#X connect 37 0 41 0;
#X connect 38 0 60 0;
#X connect 39 0 42 1;
#X connect 39 0 46 0;
#X connect 40 0 42 0;
#X connect 41 0 44 0;
#X connect 42 0 43 0;
#X connect 43 0 38 0;
#X connect 44 0 35 0;
#X connect 45 0 41 2;
#X connect 45 0 51 0;
#X connect 46 0 42 2;
#X connect 46 0 52 0;
#X connect 47 0 37 0;
#X connect 48 0 40 0;
#X connect 49 0 40 0;
#X connect 49 0 48 0;
#X connect 50 0 37 0;
#X connect 50 0 47 0;
#X connect 51 0 47 0;
#X connect 52 0 48 0;
#X connect 53 0 32 1;
#X connect 54 0 29 1;
#X connect 55 1 27 0;
#X connect 55 2 28 0;
#X connect 55 3 53 0;
#X connect 55 4 54 0;
#X connect 56 0 7 0;
#X connect 57 0 3 0;
#X connect 58 0 0 0;
#X connect 59 0 32 0;
#X connect 60 0 29 0;
#X connect 61 0 36 0;
#X connect 62 0 10 0;
#X connect 67 0 39 0;
