#N canvas 530 63 792 593 12;
#N canvas 0 50 450 250 (subpatch) 0;
#X array soundData 20558 float 4;
#X coords 0 1 20557 -1 200 140 1;
#X restore 458 221 graph;
#X obj 52 88 soundfiler;
#X msg 52 34 read -resize sounds/whip.wav soundData;
#X obj 311 135 nbx 5 17 -1e+37 1e+37 0 0 empty empty empty 0 -10 0 12 #fcfcfc #000000 #000000 0 256;
#X obj 74 325 phasor~;
#X obj 289 359 *~;
#X obj 291 426 tabread4~ soundData;
#X obj 292 528 dac~;
#X obj 64 195 expr 44100/$f1;
#X msg 23 295 0;
#X obj 97 253 hsl 162 19 -5 5 0 0 empty empty empty -2 -10 0 12 #fcfcfc #000000 #000000 0 1;
#X obj 134 289 nbx 5 17 -1e+37 1e+37 0 0 empty empty empty 0 -10 0 12 #fcfcfc #000000 #000000 0 256;
#X connect 1 0 3 0;
#X connect 2 0 1 0;
#X connect 3 0 8 0;
#X connect 3 0 5 1;
#X connect 4 0 5 0;
#X connect 5 0 6 0;
#X connect 6 0 7 0;
#X connect 9 0 4 0;
#X connect 10 0 4 0;
#X connect 10 0 11 0;
