#N canvas 216 18 962 593 12;
#N canvas 0 50 450 250 (subpatch) 0;
#X array soundData 20558 float 4;
#X coords 0 1 20557 -1 200 140 1;
#X restore 644 135 graph;
#X obj 550 93 soundfiler;
#X msg 550 56 read -resize sounds/whip.wav soundData;
#X obj 550 128 nbx 5 17 -1e+37 1e+37 0 0 empty empty empty 0 -10 0 12 #fcfcfc #000000 #000000 0 256;
#X obj 532 472 *~;
#X obj 531 511 tabread4~ soundData;
#X obj 532 540 dac~;
#X msg 156 358 0;
#X obj 156 331 delay;
#X obj 55 69 netreceive -u -b 3000;
#X floatatom 335 224 5 0 0 0 - - - 0;
#X floatatom 156 303 5 0 0 0 - - - 0;
#X obj 550 9 loadbang;
#X floatatom 55 222 5 0 0 0 - - - 0;
#X obj 156 270 expr abs($f2/($f1+0.0001));
#X text 94 223 speed/pitch change;
#X text 186 358 only play once;
#X obj 156 402 phasor~;
#X obj 55 107 oscparse;
#X listbox 150 137 20 0 0 0 - - - 0;
#X obj 55 162 unpack;
#X obj 335 173 expr $f1/24;
#X connect 1 0 3 0;
#X connect 2 0 1 0;
#X connect 3 0 4 1;
#X connect 3 0 21 0;
#X connect 4 0 5 0;
#X connect 5 0 6 0;
#X connect 5 0 6 1;
#X connect 7 0 17 0;
#X connect 7 0 17 1;
#X connect 8 0 7 0;
#X connect 9 0 18 0;
#X connect 10 0 14 1;
#X connect 11 0 8 0;
#X connect 12 0 2 0;
#X connect 13 0 14 0;
#X connect 13 0 17 0;
#X connect 14 0 11 0;
#X connect 17 0 4 0;
#X connect 18 0 19 0;
#X connect 18 0 20 0;
#X connect 20 1 13 0;
#X connect 21 0 10 0;
#X coords 0 0 20557 1 0 0 0;
